<mxfile host="app.diagrams.net" agent="Mozilla/5.0 (Windows NT 10.0; Win64; x64) AppleWebKit/537.36 (KHTML, like Gecko) Chrome/133.0.0.0 Safari/537.36 OPR/118.0.0.0" version="26.2.14">
  <diagram id="C5RBs43oDa-KdzZeNtuy" name="Page-1">
    <mxGraphModel dx="998" dy="542" grid="1" gridSize="10" guides="1" tooltips="1" connect="1" arrows="1" fold="1" page="1" pageScale="1" pageWidth="827" pageHeight="1169" background="#ffffff" math="0" shadow="0">
      <root>
        <mxCell id="WIyWlLk6GJQsqaUBKTNV-0" />
        <mxCell id="WIyWlLk6GJQsqaUBKTNV-1" parent="WIyWlLk6GJQsqaUBKTNV-0" />
        <mxCell id="d9sPS7V4JcXmvTBqyDyl-2" style="edgeStyle=orthogonalEdgeStyle;rounded=0;orthogonalLoop=1;jettySize=auto;html=1;exitX=0.5;exitY=1;exitDx=0;exitDy=0;entryX=0.5;entryY=0;entryDx=0;entryDy=0;" edge="1" parent="WIyWlLk6GJQsqaUBKTNV-1" source="WIyWlLk6GJQsqaUBKTNV-3" target="d9sPS7V4JcXmvTBqyDyl-0">
          <mxGeometry relative="1" as="geometry" />
        </mxCell>
        <mxCell id="WIyWlLk6GJQsqaUBKTNV-3" value="Start" style="rounded=1;whiteSpace=wrap;html=1;fontSize=12;glass=0;strokeWidth=1;shadow=0;" parent="WIyWlLk6GJQsqaUBKTNV-1" vertex="1">
          <mxGeometry x="340" y="10" width="120" height="40" as="geometry" />
        </mxCell>
        <mxCell id="WIyWlLk6GJQsqaUBKTNV-11" value="End" style="rounded=1;whiteSpace=wrap;html=1;fontSize=12;glass=0;strokeWidth=1;shadow=0;" parent="WIyWlLk6GJQsqaUBKTNV-1" vertex="1">
          <mxGeometry x="340" y="1200" width="120" height="40" as="geometry" />
        </mxCell>
        <mxCell id="d9sPS7V4JcXmvTBqyDyl-4" style="edgeStyle=orthogonalEdgeStyle;rounded=0;orthogonalLoop=1;jettySize=auto;html=1;exitX=0.5;exitY=1;exitDx=0;exitDy=0;entryX=0.5;entryY=0;entryDx=0;entryDy=0;" edge="1" parent="WIyWlLk6GJQsqaUBKTNV-1" source="d9sPS7V4JcXmvTBqyDyl-0" target="d9sPS7V4JcXmvTBqyDyl-3">
          <mxGeometry relative="1" as="geometry" />
        </mxCell>
        <mxCell id="d9sPS7V4JcXmvTBqyDyl-0" value="&lt;span data-lucid-content=&quot;{&amp;quot;t&amp;quot;:&amp;quot;Smartwatch monitors Heart Rate&amp;quot;,&amp;quot;m&amp;quot;:[{&amp;quot;s&amp;quot;:0,&amp;quot;n&amp;quot;:&amp;quot;p&amp;quot;,&amp;quot;v&amp;quot;:1.2},{&amp;quot;s&amp;quot;:0,&amp;quot;n&amp;quot;:&amp;quot;a&amp;quot;,&amp;quot;v&amp;quot;:&amp;quot;center&amp;quot;},{&amp;quot;s&amp;quot;:0,&amp;quot;n&amp;quot;:&amp;quot;s&amp;quot;,&amp;quot;v&amp;quot;:22.22222222222222,&amp;quot;e&amp;quot;:30},{&amp;quot;s&amp;quot;:0,&amp;quot;n&amp;quot;:&amp;quot;fsp&amp;quot;,&amp;quot;v&amp;quot;:&amp;quot;ss_presetShapeStyle2_textStyle&amp;quot;,&amp;quot;e&amp;quot;:30},{&amp;quot;s&amp;quot;:0,&amp;quot;n&amp;quot;:&amp;quot;fsp2&amp;quot;,&amp;quot;v&amp;quot;:&amp;quot;ss_presetShapeStyle2_textStyle&amp;quot;,&amp;quot;e&amp;quot;:30}]}&quot; data-lucid-type=&quot;application/vnd.lucid.text&quot;&gt;&lt;span style=&quot;color:#000000;font-size:16.666666666666664px;&quot;&gt;Smartwatch monitors Heart Rate&lt;/span&gt;&lt;/span&gt;" style="rounded=0;whiteSpace=wrap;html=1;" vertex="1" parent="WIyWlLk6GJQsqaUBKTNV-1">
          <mxGeometry x="310" y="90" width="180" height="60" as="geometry" />
        </mxCell>
        <mxCell id="d9sPS7V4JcXmvTBqyDyl-6" style="edgeStyle=orthogonalEdgeStyle;rounded=0;orthogonalLoop=1;jettySize=auto;html=1;exitX=0.5;exitY=1;exitDx=0;exitDy=0;entryX=0.5;entryY=0;entryDx=0;entryDy=0;" edge="1" parent="WIyWlLk6GJQsqaUBKTNV-1" source="d9sPS7V4JcXmvTBqyDyl-3" target="d9sPS7V4JcXmvTBqyDyl-5">
          <mxGeometry relative="1" as="geometry" />
        </mxCell>
        <mxCell id="d9sPS7V4JcXmvTBqyDyl-3" value="&lt;span data-lucid-content=&quot;{&amp;quot;t&amp;quot;:&amp;quot;Feed data to HeartRate.py&amp;quot;,&amp;quot;m&amp;quot;:[{&amp;quot;s&amp;quot;:0,&amp;quot;n&amp;quot;:&amp;quot;p&amp;quot;,&amp;quot;v&amp;quot;:1.2},{&amp;quot;s&amp;quot;:0,&amp;quot;n&amp;quot;:&amp;quot;a&amp;quot;,&amp;quot;v&amp;quot;:&amp;quot;center&amp;quot;},{&amp;quot;s&amp;quot;:0,&amp;quot;n&amp;quot;:&amp;quot;s&amp;quot;,&amp;quot;v&amp;quot;:22.22222222222222,&amp;quot;e&amp;quot;:25},{&amp;quot;s&amp;quot;:0,&amp;quot;n&amp;quot;:&amp;quot;fsp&amp;quot;,&amp;quot;v&amp;quot;:&amp;quot;ss_presetShapeStyle2_textStyle&amp;quot;,&amp;quot;e&amp;quot;:25},{&amp;quot;s&amp;quot;:0,&amp;quot;n&amp;quot;:&amp;quot;fsp2&amp;quot;,&amp;quot;v&amp;quot;:&amp;quot;ss_presetShapeStyle2_textStyle&amp;quot;,&amp;quot;e&amp;quot;:25}]}&quot; data-lucid-type=&quot;application/vnd.lucid.text&quot;&gt;&lt;span style=&quot;color:#000000;font-size:16.666666666666664px;&quot;&gt;Feed data to HeartRate.py&lt;/span&gt;&lt;/span&gt;" style="rounded=0;whiteSpace=wrap;html=1;" vertex="1" parent="WIyWlLk6GJQsqaUBKTNV-1">
          <mxGeometry x="310" y="170" width="180" height="60" as="geometry" />
        </mxCell>
        <mxCell id="d9sPS7V4JcXmvTBqyDyl-7" style="edgeStyle=orthogonalEdgeStyle;rounded=0;orthogonalLoop=1;jettySize=auto;html=1;exitX=0;exitY=0.5;exitDx=0;exitDy=0;entryX=0.5;entryY=0;entryDx=0;entryDy=0;" edge="1" parent="WIyWlLk6GJQsqaUBKTNV-1" source="d9sPS7V4JcXmvTBqyDyl-5" target="d9sPS7V4JcXmvTBqyDyl-0">
          <mxGeometry relative="1" as="geometry">
            <mxPoint x="240" y="80" as="targetPoint" />
            <Array as="points">
              <mxPoint x="190" y="300" />
              <mxPoint x="190" y="70" />
              <mxPoint x="400" y="70" />
            </Array>
          </mxGeometry>
        </mxCell>
        <mxCell id="d9sPS7V4JcXmvTBqyDyl-8" value="NO" style="edgeLabel;html=1;align=center;verticalAlign=middle;resizable=0;points=[];" vertex="1" connectable="0" parent="d9sPS7V4JcXmvTBqyDyl-7">
          <mxGeometry x="-0.8627" y="-1" relative="1" as="geometry">
            <mxPoint as="offset" />
          </mxGeometry>
        </mxCell>
        <mxCell id="d9sPS7V4JcXmvTBqyDyl-10" style="edgeStyle=orthogonalEdgeStyle;rounded=0;orthogonalLoop=1;jettySize=auto;html=1;exitX=0.5;exitY=1;exitDx=0;exitDy=0;entryX=0.5;entryY=0;entryDx=0;entryDy=0;" edge="1" parent="WIyWlLk6GJQsqaUBKTNV-1" source="d9sPS7V4JcXmvTBqyDyl-5" target="d9sPS7V4JcXmvTBqyDyl-9">
          <mxGeometry relative="1" as="geometry" />
        </mxCell>
        <mxCell id="d9sPS7V4JcXmvTBqyDyl-27" value="YES" style="edgeLabel;html=1;align=center;verticalAlign=middle;resizable=0;points=[];" vertex="1" connectable="0" parent="d9sPS7V4JcXmvTBqyDyl-10">
          <mxGeometry x="-0.6" y="-1" relative="1" as="geometry">
            <mxPoint x="21" as="offset" />
          </mxGeometry>
        </mxCell>
        <mxCell id="d9sPS7V4JcXmvTBqyDyl-5" value="Threat?" style="rhombus;whiteSpace=wrap;html=1;" vertex="1" parent="WIyWlLk6GJQsqaUBKTNV-1">
          <mxGeometry x="360" y="260" width="80" height="80" as="geometry" />
        </mxCell>
        <mxCell id="d9sPS7V4JcXmvTBqyDyl-12" style="edgeStyle=orthogonalEdgeStyle;rounded=0;orthogonalLoop=1;jettySize=auto;html=1;exitX=0.5;exitY=1;exitDx=0;exitDy=0;entryX=0.5;entryY=0;entryDx=0;entryDy=0;" edge="1" parent="WIyWlLk6GJQsqaUBKTNV-1" source="d9sPS7V4JcXmvTBqyDyl-9" target="d9sPS7V4JcXmvTBqyDyl-11">
          <mxGeometry relative="1" as="geometry" />
        </mxCell>
        <mxCell id="d9sPS7V4JcXmvTBqyDyl-9" value="&lt;span data-lucid-content=&quot;{&amp;quot;t&amp;quot;:&amp;quot;Reproduce prerecorded message using Speaker (audioAlert.py)&amp;quot;,&amp;quot;m&amp;quot;:[{&amp;quot;s&amp;quot;:0,&amp;quot;n&amp;quot;:&amp;quot;p&amp;quot;,&amp;quot;v&amp;quot;:1.2},{&amp;quot;s&amp;quot;:0,&amp;quot;n&amp;quot;:&amp;quot;a&amp;quot;,&amp;quot;v&amp;quot;:&amp;quot;center&amp;quot;},{&amp;quot;s&amp;quot;:0,&amp;quot;n&amp;quot;:&amp;quot;s&amp;quot;,&amp;quot;v&amp;quot;:22.22222222222222,&amp;quot;e&amp;quot;:59},{&amp;quot;s&amp;quot;:0,&amp;quot;n&amp;quot;:&amp;quot;fsp&amp;quot;,&amp;quot;v&amp;quot;:&amp;quot;ss_presetShapeStyle2_textStyle&amp;quot;,&amp;quot;e&amp;quot;:59},{&amp;quot;s&amp;quot;:0,&amp;quot;n&amp;quot;:&amp;quot;fsp2&amp;quot;,&amp;quot;v&amp;quot;:&amp;quot;ss_presetShapeStyle2_textStyle&amp;quot;,&amp;quot;e&amp;quot;:59}]}&quot; data-lucid-type=&quot;application/vnd.lucid.text&quot;&gt;&lt;span style=&quot;color:#000000;font-size:16.666666666666664px;&quot;&gt;Reproduce prerecorded message using Speaker (audioAlert.py)&lt;/span&gt;&lt;/span&gt;" style="rounded=0;whiteSpace=wrap;html=1;" vertex="1" parent="WIyWlLk6GJQsqaUBKTNV-1">
          <mxGeometry x="290" y="360" width="220" height="70" as="geometry" />
        </mxCell>
        <mxCell id="d9sPS7V4JcXmvTBqyDyl-14" style="edgeStyle=orthogonalEdgeStyle;rounded=0;orthogonalLoop=1;jettySize=auto;html=1;exitX=0.5;exitY=1;exitDx=0;exitDy=0;entryX=0.5;entryY=0;entryDx=0;entryDy=0;" edge="1" parent="WIyWlLk6GJQsqaUBKTNV-1" source="d9sPS7V4JcXmvTBqyDyl-11" target="d9sPS7V4JcXmvTBqyDyl-13">
          <mxGeometry relative="1" as="geometry" />
        </mxCell>
        <mxCell id="d9sPS7V4JcXmvTBqyDyl-11" value="&lt;span data-lucid-content=&quot;{&amp;quot;t&amp;quot;:&amp;quot;Open Microphone and save sample (audioSample.py)&amp;quot;,&amp;quot;m&amp;quot;:[{&amp;quot;s&amp;quot;:0,&amp;quot;n&amp;quot;:&amp;quot;p&amp;quot;,&amp;quot;v&amp;quot;:1.2},{&amp;quot;s&amp;quot;:0,&amp;quot;n&amp;quot;:&amp;quot;a&amp;quot;,&amp;quot;v&amp;quot;:&amp;quot;center&amp;quot;},{&amp;quot;s&amp;quot;:0,&amp;quot;n&amp;quot;:&amp;quot;s&amp;quot;,&amp;quot;v&amp;quot;:22.22222222222222,&amp;quot;e&amp;quot;:48},{&amp;quot;s&amp;quot;:0,&amp;quot;n&amp;quot;:&amp;quot;fsp&amp;quot;,&amp;quot;v&amp;quot;:&amp;quot;ss_presetShapeStyle2_textStyle&amp;quot;,&amp;quot;e&amp;quot;:48},{&amp;quot;s&amp;quot;:0,&amp;quot;n&amp;quot;:&amp;quot;fsp2&amp;quot;,&amp;quot;v&amp;quot;:&amp;quot;ss_presetShapeStyle2_textStyle&amp;quot;,&amp;quot;e&amp;quot;:48}]}&quot; data-lucid-type=&quot;application/vnd.lucid.text&quot;&gt;&lt;span style=&quot;color:#000000;font-size:16.666666666666664px;&quot;&gt;Open Microphone and save sample (audioSample.py)&lt;/span&gt;&lt;/span&gt;" style="rounded=0;whiteSpace=wrap;html=1;" vertex="1" parent="WIyWlLk6GJQsqaUBKTNV-1">
          <mxGeometry x="290" y="460" width="220" height="70" as="geometry" />
        </mxCell>
        <mxCell id="d9sPS7V4JcXmvTBqyDyl-16" style="edgeStyle=orthogonalEdgeStyle;rounded=0;orthogonalLoop=1;jettySize=auto;html=1;exitX=0.5;exitY=1;exitDx=0;exitDy=0;entryX=0.5;entryY=0;entryDx=0;entryDy=0;" edge="1" parent="WIyWlLk6GJQsqaUBKTNV-1" source="d9sPS7V4JcXmvTBqyDyl-13" target="d9sPS7V4JcXmvTBqyDyl-15">
          <mxGeometry relative="1" as="geometry" />
        </mxCell>
        <mxCell id="d9sPS7V4JcXmvTBqyDyl-13" value="&lt;span data-lucid-content=&quot;{&amp;quot;t&amp;quot;:&amp;quot;Send recorded message to voiceRecognition.py&amp;quot;,&amp;quot;m&amp;quot;:[{&amp;quot;s&amp;quot;:0,&amp;quot;n&amp;quot;:&amp;quot;p&amp;quot;,&amp;quot;v&amp;quot;:1.2},{&amp;quot;s&amp;quot;:0,&amp;quot;n&amp;quot;:&amp;quot;a&amp;quot;,&amp;quot;v&amp;quot;:&amp;quot;center&amp;quot;},{&amp;quot;s&amp;quot;:0,&amp;quot;n&amp;quot;:&amp;quot;s&amp;quot;,&amp;quot;v&amp;quot;:22.22222222222222,&amp;quot;e&amp;quot;:44},{&amp;quot;s&amp;quot;:0,&amp;quot;n&amp;quot;:&amp;quot;fsp&amp;quot;,&amp;quot;v&amp;quot;:&amp;quot;ss_presetShapeStyle2_textStyle&amp;quot;,&amp;quot;e&amp;quot;:44},{&amp;quot;s&amp;quot;:0,&amp;quot;n&amp;quot;:&amp;quot;fsp2&amp;quot;,&amp;quot;v&amp;quot;:&amp;quot;ss_presetShapeStyle2_textStyle&amp;quot;,&amp;quot;e&amp;quot;:44}]}&quot; data-lucid-type=&quot;application/vnd.lucid.text&quot;&gt;&lt;span style=&quot;color:#000000;font-size:16.666666666666664px;&quot;&gt;Send recorded message to voiceRecognition.py&lt;/span&gt;&lt;/span&gt;" style="rounded=0;whiteSpace=wrap;html=1;" vertex="1" parent="WIyWlLk6GJQsqaUBKTNV-1">
          <mxGeometry x="290" y="560" width="220" height="70" as="geometry" />
        </mxCell>
        <mxCell id="d9sPS7V4JcXmvTBqyDyl-26" style="edgeStyle=orthogonalEdgeStyle;rounded=0;orthogonalLoop=1;jettySize=auto;html=1;exitX=0.5;exitY=1;exitDx=0;exitDy=0;entryX=0.5;entryY=0;entryDx=0;entryDy=0;" edge="1" parent="WIyWlLk6GJQsqaUBKTNV-1" source="d9sPS7V4JcXmvTBqyDyl-15" target="d9sPS7V4JcXmvTBqyDyl-25">
          <mxGeometry relative="1" as="geometry" />
        </mxCell>
        <mxCell id="d9sPS7V4JcXmvTBqyDyl-15" value="Safe word &amp;amp;&amp;amp; Whitelist person?" style="rhombus;whiteSpace=wrap;html=1;" vertex="1" parent="WIyWlLk6GJQsqaUBKTNV-1">
          <mxGeometry x="290" y="660" width="220" height="90" as="geometry" />
        </mxCell>
        <mxCell id="d9sPS7V4JcXmvTBqyDyl-22" value="" style="edgeStyle=orthogonalEdgeStyle;rounded=0;orthogonalLoop=1;jettySize=auto;html=1;exitX=0;exitY=0.5;exitDx=0;exitDy=0;" edge="1" parent="WIyWlLk6GJQsqaUBKTNV-1" source="d9sPS7V4JcXmvTBqyDyl-15" target="d9sPS7V4JcXmvTBqyDyl-21">
          <mxGeometry relative="1" as="geometry">
            <mxPoint x="250" y="300" as="targetPoint" />
            <mxPoint x="290" y="705" as="sourcePoint" />
          </mxGeometry>
        </mxCell>
        <mxCell id="d9sPS7V4JcXmvTBqyDyl-23" value="YES" style="edgeLabel;html=1;align=center;verticalAlign=middle;resizable=0;points=[];" vertex="1" connectable="0" parent="d9sPS7V4JcXmvTBqyDyl-22">
          <mxGeometry x="-0.937" y="3" relative="1" as="geometry">
            <mxPoint x="-41" y="-3" as="offset" />
          </mxGeometry>
        </mxCell>
        <mxCell id="d9sPS7V4JcXmvTBqyDyl-24" style="edgeStyle=orthogonalEdgeStyle;rounded=0;orthogonalLoop=1;jettySize=auto;html=1;exitX=0.5;exitY=0;exitDx=0;exitDy=0;entryX=0.5;entryY=0;entryDx=0;entryDy=0;" edge="1" parent="WIyWlLk6GJQsqaUBKTNV-1" source="d9sPS7V4JcXmvTBqyDyl-21" target="d9sPS7V4JcXmvTBqyDyl-0">
          <mxGeometry relative="1" as="geometry">
            <mxPoint x="190" y="70" as="targetPoint" />
          </mxGeometry>
        </mxCell>
        <mxCell id="d9sPS7V4JcXmvTBqyDyl-21" value="5 minutes" style="shape=delay;whiteSpace=wrap;html=1;" vertex="1" parent="WIyWlLk6GJQsqaUBKTNV-1">
          <mxGeometry x="150" y="470" width="80" height="40" as="geometry" />
        </mxCell>
        <mxCell id="d9sPS7V4JcXmvTBqyDyl-30" style="edgeStyle=orthogonalEdgeStyle;rounded=0;orthogonalLoop=1;jettySize=auto;html=1;exitX=0.5;exitY=1;exitDx=0;exitDy=0;entryX=0.5;entryY=0;entryDx=0;entryDy=0;" edge="1" parent="WIyWlLk6GJQsqaUBKTNV-1" source="d9sPS7V4JcXmvTBqyDyl-25" target="d9sPS7V4JcXmvTBqyDyl-29">
          <mxGeometry relative="1" as="geometry" />
        </mxCell>
        <mxCell id="d9sPS7V4JcXmvTBqyDyl-25" value="&lt;span data-lucid-content=&quot;{&amp;quot;t&amp;quot;:&amp;quot;Send audio to threatDetection.py&amp;quot;,&amp;quot;m&amp;quot;:[{&amp;quot;s&amp;quot;:0,&amp;quot;n&amp;quot;:&amp;quot;p&amp;quot;,&amp;quot;v&amp;quot;:1.2},{&amp;quot;s&amp;quot;:0,&amp;quot;n&amp;quot;:&amp;quot;a&amp;quot;,&amp;quot;v&amp;quot;:&amp;quot;center&amp;quot;},{&amp;quot;s&amp;quot;:0,&amp;quot;n&amp;quot;:&amp;quot;s&amp;quot;,&amp;quot;v&amp;quot;:22.22222222222222,&amp;quot;e&amp;quot;:32},{&amp;quot;s&amp;quot;:0,&amp;quot;n&amp;quot;:&amp;quot;fsp&amp;quot;,&amp;quot;v&amp;quot;:&amp;quot;ss_presetShapeStyle2_textStyle&amp;quot;,&amp;quot;e&amp;quot;:32},{&amp;quot;s&amp;quot;:0,&amp;quot;n&amp;quot;:&amp;quot;fsp2&amp;quot;,&amp;quot;v&amp;quot;:&amp;quot;ss_presetShapeStyle2_textStyle&amp;quot;,&amp;quot;e&amp;quot;:32}]}&quot; data-lucid-type=&quot;application/vnd.lucid.text&quot;&gt;&lt;span style=&quot;color:#000000;font-size:16.666666666666664px;&quot;&gt;Send audio to threatDetection.py&lt;/span&gt;&lt;/span&gt;" style="rounded=0;whiteSpace=wrap;html=1;" vertex="1" parent="WIyWlLk6GJQsqaUBKTNV-1">
          <mxGeometry x="290" y="770" width="220" height="70" as="geometry" />
        </mxCell>
        <mxCell id="d9sPS7V4JcXmvTBqyDyl-28" value="YES" style="edgeLabel;html=1;align=center;verticalAlign=middle;resizable=0;points=[];" vertex="1" connectable="0" parent="WIyWlLk6GJQsqaUBKTNV-1">
          <mxGeometry x="600" y="610" as="geometry">
            <mxPoint x="-178" y="151" as="offset" />
          </mxGeometry>
        </mxCell>
        <mxCell id="d9sPS7V4JcXmvTBqyDyl-32" style="edgeStyle=orthogonalEdgeStyle;rounded=0;orthogonalLoop=1;jettySize=auto;html=1;exitX=1;exitY=0.5;exitDx=0;exitDy=0;entryX=0.5;entryY=0;entryDx=0;entryDy=0;" edge="1" parent="WIyWlLk6GJQsqaUBKTNV-1" source="d9sPS7V4JcXmvTBqyDyl-29" target="d9sPS7V4JcXmvTBqyDyl-0">
          <mxGeometry relative="1" as="geometry">
            <mxPoint x="630" y="80" as="targetPoint" />
            <Array as="points">
              <mxPoint x="640" y="900" />
              <mxPoint x="640" y="70" />
              <mxPoint x="400" y="70" />
            </Array>
          </mxGeometry>
        </mxCell>
        <mxCell id="d9sPS7V4JcXmvTBqyDyl-33" value="NO" style="edgeLabel;html=1;align=center;verticalAlign=middle;resizable=0;points=[];" vertex="1" connectable="0" parent="d9sPS7V4JcXmvTBqyDyl-32">
          <mxGeometry x="-0.9113" y="2" relative="1" as="geometry">
            <mxPoint as="offset" />
          </mxGeometry>
        </mxCell>
        <mxCell id="d9sPS7V4JcXmvTBqyDyl-35" style="edgeStyle=orthogonalEdgeStyle;rounded=0;orthogonalLoop=1;jettySize=auto;html=1;exitX=0.5;exitY=1;exitDx=0;exitDy=0;entryX=0.5;entryY=0;entryDx=0;entryDy=0;" edge="1" parent="WIyWlLk6GJQsqaUBKTNV-1" source="d9sPS7V4JcXmvTBqyDyl-29" target="d9sPS7V4JcXmvTBqyDyl-34">
          <mxGeometry relative="1" as="geometry" />
        </mxCell>
        <mxCell id="d9sPS7V4JcXmvTBqyDyl-29" value="Threat?" style="rhombus;whiteSpace=wrap;html=1;" vertex="1" parent="WIyWlLk6GJQsqaUBKTNV-1">
          <mxGeometry x="360" y="860" width="80" height="80" as="geometry" />
        </mxCell>
        <mxCell id="d9sPS7V4JcXmvTBqyDyl-39" style="edgeStyle=orthogonalEdgeStyle;rounded=0;orthogonalLoop=1;jettySize=auto;html=1;exitX=0.5;exitY=1;exitDx=0;exitDy=0;entryX=0.5;entryY=0;entryDx=0;entryDy=0;" edge="1" parent="WIyWlLk6GJQsqaUBKTNV-1" source="d9sPS7V4JcXmvTBqyDyl-34" target="d9sPS7V4JcXmvTBqyDyl-38">
          <mxGeometry relative="1" as="geometry" />
        </mxCell>
        <mxCell id="d9sPS7V4JcXmvTBqyDyl-34" value="&lt;span data-lucid-content=&quot;{&amp;quot;t&amp;quot;:&amp;quot;Send SMS and Email using sendMessage.py&amp;quot;,&amp;quot;m&amp;quot;:[{&amp;quot;s&amp;quot;:0,&amp;quot;n&amp;quot;:&amp;quot;p&amp;quot;,&amp;quot;v&amp;quot;:1.2},{&amp;quot;s&amp;quot;:0,&amp;quot;n&amp;quot;:&amp;quot;a&amp;quot;,&amp;quot;v&amp;quot;:&amp;quot;center&amp;quot;},{&amp;quot;s&amp;quot;:0,&amp;quot;n&amp;quot;:&amp;quot;s&amp;quot;,&amp;quot;v&amp;quot;:22.22222222222222,&amp;quot;e&amp;quot;:39},{&amp;quot;s&amp;quot;:0,&amp;quot;n&amp;quot;:&amp;quot;fsp&amp;quot;,&amp;quot;v&amp;quot;:&amp;quot;ss_presetShapeStyle3_textStyle&amp;quot;,&amp;quot;e&amp;quot;:39},{&amp;quot;s&amp;quot;:0,&amp;quot;n&amp;quot;:&amp;quot;fsp2&amp;quot;,&amp;quot;v&amp;quot;:&amp;quot;ss_presetShapeStyle3_textStyle&amp;quot;,&amp;quot;e&amp;quot;:39}]}&quot; data-lucid-type=&quot;application/vnd.lucid.text&quot;&gt;&lt;span style=&quot;color:#000000;font-size:16.666666666666664px;&quot;&gt;Send SMS and Email using sendMessage.py&lt;/span&gt;&lt;/span&gt;" style="rounded=0;whiteSpace=wrap;html=1;" vertex="1" parent="WIyWlLk6GJQsqaUBKTNV-1">
          <mxGeometry x="290" y="960" width="220" height="70" as="geometry" />
        </mxCell>
        <mxCell id="d9sPS7V4JcXmvTBqyDyl-36" value="YES" style="text;html=1;align=center;verticalAlign=middle;resizable=0;points=[];autosize=1;strokeColor=none;fillColor=none;" vertex="1" parent="WIyWlLk6GJQsqaUBKTNV-1">
          <mxGeometry x="405" y="930" width="50" height="30" as="geometry" />
        </mxCell>
        <mxCell id="d9sPS7V4JcXmvTBqyDyl-40" style="edgeStyle=orthogonalEdgeStyle;rounded=0;orthogonalLoop=1;jettySize=auto;html=1;exitX=0;exitY=0.5;exitDx=0;exitDy=0;entryX=0.5;entryY=0;entryDx=0;entryDy=0;" edge="1" parent="WIyWlLk6GJQsqaUBKTNV-1" source="d9sPS7V4JcXmvTBqyDyl-38" target="d9sPS7V4JcXmvTBqyDyl-34">
          <mxGeometry relative="1" as="geometry">
            <Array as="points">
              <mxPoint x="270" y="1105" />
              <mxPoint x="270" y="940" />
              <mxPoint x="400" y="940" />
            </Array>
          </mxGeometry>
        </mxCell>
        <mxCell id="d9sPS7V4JcXmvTBqyDyl-41" value="NO" style="edgeLabel;html=1;align=center;verticalAlign=middle;resizable=0;points=[];" vertex="1" connectable="0" parent="d9sPS7V4JcXmvTBqyDyl-40">
          <mxGeometry x="-0.6454" relative="1" as="geometry">
            <mxPoint as="offset" />
          </mxGeometry>
        </mxCell>
        <mxCell id="d9sPS7V4JcXmvTBqyDyl-42" style="edgeStyle=orthogonalEdgeStyle;rounded=0;orthogonalLoop=1;jettySize=auto;html=1;exitX=0.5;exitY=1;exitDx=0;exitDy=0;entryX=0.5;entryY=0;entryDx=0;entryDy=0;" edge="1" parent="WIyWlLk6GJQsqaUBKTNV-1" source="d9sPS7V4JcXmvTBqyDyl-43" target="WIyWlLk6GJQsqaUBKTNV-11">
          <mxGeometry relative="1" as="geometry" />
        </mxCell>
        <mxCell id="d9sPS7V4JcXmvTBqyDyl-38" value="Safe word &amp;amp;&amp;amp; Whitelist person?" style="rhombus;whiteSpace=wrap;html=1;" vertex="1" parent="WIyWlLk6GJQsqaUBKTNV-1">
          <mxGeometry x="290" y="1060" width="220" height="90" as="geometry" />
        </mxCell>
        <mxCell id="d9sPS7V4JcXmvTBqyDyl-44" value="" style="edgeStyle=orthogonalEdgeStyle;rounded=0;orthogonalLoop=1;jettySize=auto;html=1;exitX=0.5;exitY=1;exitDx=0;exitDy=0;entryX=0.5;entryY=0;entryDx=0;entryDy=0;" edge="1" parent="WIyWlLk6GJQsqaUBKTNV-1" source="d9sPS7V4JcXmvTBqyDyl-38" target="d9sPS7V4JcXmvTBqyDyl-43">
          <mxGeometry relative="1" as="geometry">
            <mxPoint x="400" y="1150" as="sourcePoint" />
            <mxPoint x="400" y="1200" as="targetPoint" />
          </mxGeometry>
        </mxCell>
        <mxCell id="d9sPS7V4JcXmvTBqyDyl-43" value="YES" style="text;html=1;align=center;verticalAlign=middle;resizable=0;points=[];autosize=1;strokeColor=none;fillColor=none;" vertex="1" parent="WIyWlLk6GJQsqaUBKTNV-1">
          <mxGeometry x="375" y="1158" width="50" height="30" as="geometry" />
        </mxCell>
      </root>
    </mxGraphModel>
  </diagram>
</mxfile>
